<?xml version="1.0" encoding="utf-8"?>
<!-- Generator: Adobe Illustrator 18.1.1, SVG Export Plug-In . SVG Version: 6.00 Build 0)  -->
<!DOCTYPE svg PUBLIC "-//W3C//DTD SVG 1.1//EN" "http://www.w3.org/Graphics/SVG/1.1/DTD/svg11.dtd">
<svg version="1.1" xmlns="http://www.w3.org/2000/svg" xmlns:xlink="http://www.w3.org/1999/xlink" x="0px" y="0px"
	 viewBox="0 0 250 250" enable-background="new 0 0 250 250" xml:space="preserve">
<g id="Layer_1" display="none">
	
		<image display="inline" overflow="visible" opacity="0.5" width="129" height="121" xlink:href="Screen Shot 2015-03-21 at 16.40.26.png"  transform="matrix(4.4769 0 0 4.4769 -171.7603 -54)">
	</image>
</g>
<g id="Layer_2">
	<path opacity="0.43" fill="none" stroke="#261E1E" stroke-miterlimit="10" d="M105.5,40.2"/>
	<path fill="#FFFFFF" d="M74.1,38.9c-4.5,7.2-8.4,19.4-5.1,38.6c4.1,23.6,34.9,41.9,48.8,47.5c14.1,5.7,50.5,17,53.9,47.7
		c3.2,36.8-30.5,51-30.5,51c-5.3,0.9-10.7,1.3-16.2,1.3c-55.2,0-100-44.8-100-100C25,88.4,44.7,56.3,74.1,38.9z M125,25
		c33.4,0,63,16.4,81.2,41.6l29.4,0.1C214.6,27,173,0,125,0C56,0,0,56,0,125s56,125,125,125c48,0,89.6-27,110.6-66.7l-29-0.5
		c-6.1,8.7-13.6,16.3-22.1,22.6c0,0,11.5-12.7,8.5-42.7c-3.3-30.7-41.9-48.3-56-54c-13.9-5.6-43.6-15.7-47.7-39.3
		C86,50.2,96.1,34.6,101,27.9C108.7,26,116.7,25,125,25z"/>
</g>
</svg>
